<svg xmlns="http://www.w3.org/2000/svg" xmlns:xlink="http://www.w3.org/1999/xlink" viewBox="0 0 1920 1080">
<line x1="728" y1="354" x2="1521" y2="724"  style="stroke:#000000;stroke-width:2"/>
<line x1="728" y1="354" x2="1211" y2="878"  style="stroke:#000000;stroke-width:2"/>
<line x1="728" y1="354" x2="1348" y2="295"  style="stroke:#000000;stroke-width:2"/>
<line x1="728" y1="354" x2="1795" y2="203"  style="stroke:#000000;stroke-width:2"/>
<line x1="653" y1="172" x2="1795" y2="203"  style="stroke:#000000;stroke-width:2"/>
<line x1="1354" y1="740" x2="653" y2="172"  style="stroke:#000000;stroke-width:2"/>
<line x1="1007" y1="863" x2="653" y2="172"  style="stroke:#000000;stroke-width:2"/>
<line x1="1603" y1="991" x2="1795" y2="203"  style="stroke:#000000;stroke-width:2"/>
<line x1="885" y1="397" x2="1603" y2="991"  style="stroke:#000000;stroke-width:2"/>
<line x1="872" y1="59" x2="1603" y2="991"  style="stroke:#000000;stroke-width:2"/>
<line x1="1718" y1="519" x2="1795" y2="203"  style="stroke:#000000;stroke-width:2"/>
<line x1="1235" y1="672" x2="1718" y2="519"  style="stroke:#000000;stroke-width:2"/>
<line x1="1235" y1="672" x2="89" y2="710"  style="stroke:#000000;stroke-width:2"/>
<line x1="89" y1="710" x2="1795" y2="203"  style="stroke:#000000;stroke-width:2"/>
<line x1="1318" y1="320" x2="89" y2="710"  style="stroke:#000000;stroke-width:2"/>
<line x1="243" y1="912" x2="89" y2="710"  style="stroke:#000000;stroke-width:2"/>
<line x1="243" y1="912" x2="1603" y2="991"  style="stroke:#000000;stroke-width:2"/>
<line x1="330" y1="519" x2="1795" y2="203"  style="stroke:#000000;stroke-width:2"/>
<line x1="1798" y1="1010" x2="1348" y2="295"  style="stroke:#000000;stroke-width:2"/>
<line x1="1798" y1="1010" x2="92" y2="137"  style="stroke:#000000;stroke-width:2"/>
<line x1="1417" y1="810" x2="1348" y2="295"  style="stroke:#000000;stroke-width:2"/>
<line x1="1245" y1="183" x2="1211" y2="878"  style="stroke:#000000;stroke-width:2"/>
<line x1="887" y1="306" x2="1211" y2="878"  style="stroke:#000000;stroke-width:2"/>
<line x1="1521" y1="724" x2="984" y2="622"  style="stroke:#000000;stroke-width:2"/>
<line x1="1521" y1="724" x2="258" y2="1019"  style="stroke:#000000;stroke-width:2"/>
<line x1="1521" y1="724" x2="1016" y2="199"  style="stroke:#000000;stroke-width:2"/>
<rect x="653" y="329" width="150" height="50" stroke="#000000" stroke-width="2px" fill="#000077"/>
<svg x="653" y="329" width="150" height="50">
<text x="50%" y="50%" dominant-baseline="middle" text-anchor="middle" fill="#ffffff">Weird Science (1985)</text>
</svg>
<rect x="578" y="147" width="150" height="50" stroke="#000000" stroke-width="2px" fill="#000077"/>
<svg x="578" y="147" width="150" height="50">
<text x="50%" y="50%" dominant-baseline="middle" text-anchor="middle" fill="#ffffff">Stripes (1981)</text>
</svg>
<rect x="1279" y="715" width="150" height="50" stroke="#000000" stroke-width="2px" fill="#660066"/>
<svg x="1279" y="715" width="150" height="50">
<text x="50%" y="50%" dominant-baseline="middle" text-anchor="middle" fill="#ffffff">Bill Murray</text>
</svg>
<rect x="932" y="838" width="150" height="50" stroke="#000000" stroke-width="2px" fill="#660066"/>
<svg x="932" y="838" width="150" height="50">
<text x="50%" y="50%" dominant-baseline="middle" text-anchor="middle" fill="#ffffff">John Candy</text>
</svg>
<rect x="1528" y="966" width="150" height="50" stroke="#000000" stroke-width="2px" fill="#000077"/>
<svg x="1528" y="966" width="150" height="50">
<text x="50%" y="50%" dominant-baseline="middle" text-anchor="middle" fill="#ffffff">Aliens (1986)</text>
</svg>
<rect x="810" y="372" width="150" height="50" stroke="#000000" stroke-width="2px" fill="#660066"/>
<svg x="810" y="372" width="150" height="50">
<text x="50%" y="50%" dominant-baseline="middle" text-anchor="middle" fill="#ffffff">Sigourney Weaver</text>
</svg>
<rect x="797" y="34" width="150" height="50" stroke="#000000" stroke-width="2px" fill="#660066"/>
<svg x="797" y="34" width="150" height="50">
<text x="50%" y="50%" dominant-baseline="middle" text-anchor="middle" fill="#ffffff">Michael Biehn</text>
</svg>
<rect x="1643" y="494" width="150" height="50" stroke="#000000" stroke-width="2px" fill="#000077"/>
<svg x="1643" y="494" width="150" height="50">
<text x="50%" y="50%" dominant-baseline="middle" text-anchor="middle" fill="#ffffff">Commando (1985)</text>
</svg>
<rect x="1160" y="647" width="150" height="50" stroke="#000000" stroke-width="2px" fill="#660066"/>
<svg x="1160" y="647" width="150" height="50">
<text x="50%" y="50%" dominant-baseline="middle" text-anchor="middle" fill="#ffffff">Arnold Schwarzenegger</text>
</svg>
<rect x="14" y="685" width="150" height="50" stroke="#000000" stroke-width="2px" fill="#000077"/>
<svg x="14" y="685" width="150" height="50">
<text x="50%" y="50%" dominant-baseline="middle" text-anchor="middle" fill="#ffffff">The Terminator (1984)</text>
</svg>
<rect x="1243" y="295" width="150" height="50" stroke="#000000" stroke-width="2px" fill="#660066"/>
<svg x="1243" y="295" width="150" height="50">
<text x="50%" y="50%" dominant-baseline="middle" text-anchor="middle" fill="#ffffff">Linda Hamilton</text>
</svg>
<rect x="168" y="887" width="150" height="50" stroke="#000000" stroke-width="2px" fill="#660066"/>
<svg x="168" y="887" width="150" height="50">
<text x="50%" y="50%" dominant-baseline="middle" text-anchor="middle" fill="#ffffff">Lance Henriksen</text>
</svg>
<rect x="255" y="494" width="150" height="50" stroke="#000000" stroke-width="2px" fill="#000077"/>
<svg x="255" y="494" width="150" height="50">
<text x="50%" y="50%" dominant-baseline="middle" text-anchor="middle" fill="#ffffff">The Lords of Discipline (1983)</text>
</svg>
<rect x="1723" y="985" width="150" height="50" stroke="#000000" stroke-width="2px" fill="#000077"/>
<svg x="1723" y="985" width="150" height="50">
<text x="50%" y="50%" dominant-baseline="middle" text-anchor="middle" fill="#ffffff">The Woman in Red (1984)</text>
</svg>
<rect x="17" y="112" width="150" height="50" stroke="#000000" stroke-width="2px" fill="#660066"/>
<svg x="17" y="112" width="150" height="50">
<text x="50%" y="50%" dominant-baseline="middle" text-anchor="middle" fill="#ffffff">Gene Wilder</text>
</svg>
<rect x="1342" y="785" width="150" height="50" stroke="#000000" stroke-width="2px" fill="#000077"/>
<svg x="1342" y="785" width="150" height="50">
<text x="50%" y="50%" dominant-baseline="middle" text-anchor="middle" fill="#ffffff">Hard to Kill (1990)</text>
</svg>
<rect x="1170" y="158" width="150" height="50" stroke="#000000" stroke-width="2px" fill="#000077"/>
<svg x="1170" y="158" width="150" height="50">
<text x="50%" y="50%" dominant-baseline="middle" text-anchor="middle" fill="#ffffff">The Wild Life (1984)</text>
</svg>
<rect x="812" y="281" width="150" height="50" stroke="#000000" stroke-width="2px" fill="#000077"/>
<svg x="812" y="281" width="150" height="50">
<text x="50%" y="50%" dominant-baseline="middle" text-anchor="middle" fill="#ffffff">Journey to the Center of the Earth (1988)</text>
</svg>
<rect x="1446" y="699" width="150" height="50" stroke="#000000" stroke-width="2px" fill="#660066"/>
<svg x="1446" y="699" width="150" height="50">
<text x="50%" y="50%" dominant-baseline="middle" text-anchor="middle" fill="#ffffff">Anthony Michael Hall</text>
</svg>
<rect x="909" y="597" width="150" height="50" stroke="#000000" stroke-width="2px" fill="#000077"/>
<svg x="909" y="597" width="150" height="50">
<text x="50%" y="50%" dominant-baseline="middle" text-anchor="middle" fill="#ffffff">Pirates of Silicon Valley (1999)</text>
</svg>
<rect x="183" y="994" width="150" height="50" stroke="#000000" stroke-width="2px" fill="#000077"/>
<svg x="183" y="994" width="150" height="50">
<text x="50%" y="50%" dominant-baseline="middle" text-anchor="middle" fill="#ffffff">The Breakfast Club (1985)</text>
</svg>
<rect x="941" y="174" width="150" height="50" stroke="#000000" stroke-width="2px" fill="#000077"/>
<svg x="941" y="174" width="150" height="50">
<text x="50%" y="50%" dominant-baseline="middle" text-anchor="middle" fill="#ffffff">National Lampoon's Vacation (1983)</text>
</svg>
<rect x="1136" y="853" width="150" height="50" stroke="#000000" stroke-width="2px" fill="#660066"/>
<svg x="1136" y="853" width="150" height="50">
<text x="50%" y="50%" dominant-baseline="middle" text-anchor="middle" fill="#ffffff">Ilan Mitchell-Smith</text>
</svg>
<rect x="1273" y="270" width="150" height="50" stroke="#000000" stroke-width="2px" fill="#660066"/>
<svg x="1273" y="270" width="150" height="50">
<text x="50%" y="50%" dominant-baseline="middle" text-anchor="middle" fill="#ffffff">Kelly LeBrock</text>
</svg>
<rect x="1720" y="178" width="150" height="50" stroke="#000000" stroke-width="2px" fill="#660066"/>
<svg x="1720" y="178" width="150" height="50">
<text x="50%" y="50%" dominant-baseline="middle" text-anchor="middle" fill="#ffffff">Bill Paxton</text>
</svg>
</svg>
